<?xml version="1.0" encoding="UTF-8"?>
<svg version="1.1" xmlns="http://www.w3.org/2000/svg" width="611" height="487">
<path d="M0 0 C201.63 0 403.26 0 611 0 C611 160.71 611 321.42 611 487 C409.37 487 207.74 487 0 487 C0 326.29 0 165.58 0 0 Z " fill="#180107" transform="translate(0,0)"/>
<path d="M0 0 C17.16111379 -0.51540829 33.22833215 0.24164306 50 4 C50.69448242 4.14953125 51.38896484 4.2990625 52.10449219 4.453125 C68.29818525 8.01326515 83.91652123 14.55309432 98.5546875 22.23828125 C101.99162283 23.99571644 105.43766698 25.51949075 109 27 C109 27.66 109 28.32 109 29 C110.01126953 29.34611328 110.01126953 29.34611328 111.04296875 29.69921875 C114.77721449 31.34189224 117.95728525 33.50984383 121.3125 35.8125 C122.64904379 36.71977585 123.98627697 37.62603701 125.32421875 38.53125 C125.96020996 38.96179688 126.59620117 39.39234375 127.25146484 39.8359375 C129.87176821 41.58036733 132.56080077 43.20046054 135.2890625 44.76953125 C137.80316104 46.57761582 139.82548054 48.79519476 142 51 C143.29149816 52.21796637 144.58886825 53.42972292 145.890625 54.63671875 C161.48698072 69.11382965 161.48698072 69.11382965 168 77 C168.75925781 77.91007812 169.51851563 78.82015625 170.30078125 79.7578125 C183.94321758 96.77278093 195.31048474 116.23841716 202.796875 136.7421875 C203.47178672 138.5697082 204.16501449 140.39153238 204.92163086 142.18676758 C207.6334741 148.65228121 209.46798297 155.11674927 211.0625 161.9375 C211.30548828 162.92556641 211.54847656 163.91363281 211.79882812 164.93164062 C215.45381241 180.2980865 217.49811653 195.31145083 217.33618164 211.10717773 C217.31246696 213.56592581 217.31567488 216.02358689 217.32226562 218.48242188 C217.30839473 226.6270689 216.97890729 234.67699951 216.10546875 242.77734375 C216.02823074 243.50216446 215.95099274 244.22698517 215.87141418 244.97377014 C215.33298052 249.47923901 214.31291501 253.66337156 213 258 C212.69527787 259.95334701 212.42438116 261.91227041 212.1875 263.875 C211.37685325 269.41441945 210.11580545 274.69465361 208.5625 280.0625 C208.35713623 280.78872559 208.15177246 281.51495117 207.94018555 282.26318359 C206.79759806 286.08134873 205.53464306 288.93759565 203 292 C202.26598975 293.86838973 201.53870646 295.73994887 200.859375 297.62890625 C192.18939741 321.5501626 178.37260822 341.7347233 162 361 C161.54206055 361.54060059 161.08412109 362.08120117 160.61230469 362.63818359 C154.94919875 369.26346773 148.92257333 374.73448359 142 380 C140.43638214 381.29031322 138.87390104 382.58200509 137.3125 383.875 C126.9219104 392.18095721 115.42509963 399.22167597 104 406 C103.04609375 406.58394531 102.0921875 407.16789062 101.109375 407.76953125 C90.71311792 413.79772744 79.3675245 417.25897356 68 421 C66.36569007 421.54629095 64.73156132 422.09312436 63.09765625 422.640625 C51.55963772 426.47721518 40.02849628 428.40642839 28 430 C27.33403809 430.09861328 26.66807617 430.19722656 25.98193359 430.29882812 C17.99675029 431.36736288 9.91686182 431.24390337 1.875 431.25 C1.07520721 431.25067474 0.27541443 431.25134949 -0.5486145 431.25204468 C-54.7653238 431.17960137 -106.47453536 411.47238654 -145.87109375 373.91796875 C-147.76031195 372.12376955 -149.63149501 370.49922261 -151.6796875 368.875 C-153.98430528 367.01268261 -155.79197901 365.08286559 -157.6875 362.8125 C-159.99686532 359.96918383 -159.99686532 359.96918383 -163 358 C-163.89906638 356.37476461 -164.79719977 354.74900812 -165.69140625 353.12109375 C-167.1423821 350.76921349 -168.79019288 348.74524472 -170.5625 346.625 C-200.30735083 310.03717792 -215.08104454 261.74714142 -215.375 215 C-215.37956207 214.29577911 -215.38412415 213.59155823 -215.38882446 212.86599731 C-215.41537036 201.24166483 -214.41541611 189.92755976 -212.6875 178.4375 C-212.58080994 177.71602783 -212.47411987 176.99455566 -212.36419678 176.2512207 C-211.24954542 168.86419711 -209.96025219 161.89384817 -207 155 C-206.42606334 153.33723702 -205.8609133 151.67135481 -205.3125 150 C-205.06113281 149.236875 -204.80976563 148.47375 -204.55078125 147.6875 C-204.36902344 147.130625 -204.18726563 146.57375 -204 146 C-202.59746101 150.45965496 -203.90978582 153.85983993 -205.25 158.1875 C-210.35118037 175.54990865 -212.25104192 192.81110925 -212.3125 210.875 C-212.31511841 211.61489166 -212.31773682 212.35478333 -212.32043457 213.11709595 C-212.32792014 233.0444931 -210.11163033 252.95992089 -204 272 C-203.79149414 272.6811084 -203.58298828 273.3622168 -203.36816406 274.06396484 C-192.45506055 309.70974056 -173.16032044 339.73500967 -147.125 366.1875 C-146.41126221 366.91904297 -145.69752441 367.65058594 -144.9621582 368.40429688 C-141.19613518 372.16457159 -137.93817618 374.84183412 -133 377 C-131.31066078 378.6436814 -129.64740076 380.3142876 -128 382 C-122.92740334 386.35341944 -118.23016265 389.6037836 -112 392 C-109.0625 393.5625 -109.0625 393.5625 -107 395 C-107 395.66 -107 396.32 -107 397 C-105.91138672 397.41958984 -105.91138672 397.41958984 -104.80078125 397.84765625 C-102.17873729 398.92646095 -99.70314108 400.13294299 -97.1875 401.4375 C-93.55539389 403.27498141 -89.95908173 404.82565983 -86.12890625 406.1875 C-83.52930189 407.17964258 -81.02565705 408.33270871 -78.5 409.5 C-71.94216382 412.50303671 -66.28311784 414.99510466 -59.04296875 415.6953125 C-56.85049599 416.02229696 -54.96037341 416.62719512 -52.875 417.375 C-36.19126078 423.23144956 -18.46135991 424.39268115 -0.9375 424.3125 C-0.12840179 424.31100952 0.68069641 424.30951904 1.51431274 424.3079834 C14.55217377 424.26493666 27.17505483 423.48181188 40 421 C41.13429443 420.79914795 41.13429443 420.79914795 42.29150391 420.59423828 C60.47786295 417.35158727 77.80404001 410.73764315 94.05371094 402.02978516 C96.07543501 400.9600872 98.11602699 399.93629488 100.1640625 398.91796875 C114.29178951 391.8095868 127.05060063 382.95966849 138.89160156 372.47705078 C141.46161657 370.21144697 143.83119093 368.33978151 147 367 C147 366.34 147 365.68 147 365 C148.40794923 363.83243234 149.81877276 362.66819384 151.2421875 361.51953125 C163.16999 351.20860864 172.73845499 336.30771508 181 323 C181.40573242 322.34644531 181.81146484 321.69289063 182.22949219 321.01953125 C193.67370663 302.25138259 202.4502422 281.31247734 206.49707031 259.67285156 C206.8380014 257.86095177 207.20003998 256.05291995 207.58105469 254.24902344 C210.71837719 239.30963618 211.39256046 224.64995098 211.4375 209.4375 C211.4436734 208.54970856 211.4498468 207.66191711 211.45620728 206.7472229 C211.50951311 194.83798421 210.49432747 183.64441413 208 172 C207.84572037 171.27562241 207.69144073 170.55124481 207.53248596 169.80491638 C205.73137429 161.39603822 203.54616386 153.15295085 201 144.9375 C200.7630542 144.16422363 200.5261084 143.39094727 200.28198242 142.59423828 C198.84078658 138.07845871 197.07187479 133.93910542 194.88378906 129.7355957 C193.8714663 127.74758395 193.10902297 125.73027467 192.375 123.625 C173.82138077 76.66564591 130.67366237 38.80651415 85.28662109 18.80419922 C63.30977044 9.53851118 39.83375693 3.4470881 16 2 C14.429638 1.89133802 12.85932571 1.78195531 11.2890625 1.671875 C7.52755346 1.41695285 3.765019 1.19733893 0 1 C0 0.67 0 0.34 0 0 Z " fill="#A81B3E" transform="translate(303,28)"/>
<path d="M0 0 C3.18618806 2.09998758 4.35911202 3.2580085 5.75 6.8125 C6.39107009 10.66604356 6.61603426 14.15947428 4.765625 17.69140625 C2.38606007 20.73930577 0.4835802 22.11045928 -3.25 22.8125 C-3.22721619 26.08488031 -3.14994236 29.35375903 -3.0625 32.625 C-3.05669922 33.55376953 -3.05089844 34.48253906 -3.04492188 35.43945312 C-2.96200204 37.99154138 -2.8346311 40.32595321 -2.25 42.8125 C0.01942442 44.96129069 0.01942442 44.96129069 2.75 45.8125 C5 47.4375 5 47.4375 6.75 49.8125 C6.79468596 51.21546396 6.79906 52.61993007 6.77734375 54.0234375 C7.07290444 57.08289 7.40016949 58.43409206 9.50732422 60.71337891 C11.95583438 62.55406219 14.4588801 64.19869953 17.0625 65.8125 C18.89436072 67.01390142 20.72509353 68.21702441 22.5546875 69.421875 C23.44639648 69.99744141 24.33810547 70.57300781 25.25683594 71.16601562 C29.45668517 73.93959408 33.37914547 77.03739748 37.33984375 80.140625 C39.64266364 81.88320269 39.64266364 81.88320269 42.14331055 82.71337891 C44.86281219 83.86006771 46.63156334 85.16054993 48.8671875 87.0703125 C59.34036668 96.12516187 59.34036668 96.12516187 72.4375 98.6875 C75.96844931 98.37378834 75.96844931 98.37378834 78.75 97.8125 C79.01087402 97.21050781 79.27174805 96.60851562 79.54052734 95.98828125 C80.84030807 93.65004027 81.97280841 92.58727407 84.1015625 91 C84.77952881 90.48824219 85.45749512 89.97648437 86.15600586 89.44921875 C86.88827393 88.90910156 87.62054199 88.36898437 88.375 87.8125 C89.13627197 87.24144531 89.89754395 86.67039062 90.68188477 86.08203125 C92.26381196 84.89644462 93.84823441 83.71418055 95.43505859 82.53515625 C97.56488314 80.95025412 99.6849395 79.35349719 101.80078125 77.75 C109.45752032 71.95612579 117.20061775 66.29163131 125.00366211 60.6965332 C131.01630089 56.37509203 136.93798664 51.94069602 142.80078125 47.41796875 C147.53295898 43.8125 147.53295898 43.8125 149.75 43.8125 C149.70875 42.53375 149.6675 41.255 149.625 39.9375 C149.5546875 37.7578125 149.5546875 37.7578125 149.75 35.8125 C151.75 33.8125 151.75 33.8125 154.6875 33.4375 C157.75 33.8125 157.75 33.8125 159.625 35.5 C160.95607683 38.23610236 161.21233717 39.80730842 160.75 42.8125 C159.6875 44.5625 159.6875 44.5625 157.75 45.8125 C156.14511719 45.95171875 156.14511719 45.95171875 154.5078125 46.09375 C150.15754323 46.92581814 147.85006356 48.65720249 144.6875 51.5625 C144.13658691 52.0476709 143.58567383 52.5328418 143.01806641 53.03271484 C138.20819195 57.30047891 133.52379908 61.71189961 128.83935547 66.11645508 C125.43263101 69.30594051 121.96191324 72.33587595 118.3125 75.25 C113.05871112 79.4514836 108.20994237 84.01158921 103.32788086 88.63134766 C98.00754767 93.63896159 92.46593993 98.26008144 86.75 102.8125 C85.22364408 104.33885592 85.56189987 105.87809362 85.4375 108 C84.8595835 113.59245349 82.85674692 117.00671693 78.5625 120.6875 C74.57208352 122.28366659 70.98251001 122.6574657 66.75 121.8125 C63.8125 119.4375 63.8125 119.4375 61.75 116.8125 C61.09 116.1525 60.43 115.4925 59.75 114.8125 C59.48008094 112.12410615 59.66262643 109.52108064 59.75 106.8125 C59.07710937 106.58820313 58.40421875 106.36390625 57.7109375 106.1328125 C53.89303461 104.43037032 50.74816209 102.13660121 47.375 99.6875 C45.86262273 98.60456941 44.34956375 97.52259043 42.8359375 96.44140625 C42.0222168 95.85891113 41.20849609 95.27641602 40.37011719 94.67626953 C35.60661271 91.28784303 30.80143721 87.95934227 26 84.625 C25.02039307 83.94276367 24.04078613 83.26052734 23.03149414 82.55761719 C18.83433957 79.63656469 14.63368448 76.7231309 10.39453125 73.86328125 C9.77610352 73.44393311 9.15767578 73.02458496 8.52050781 72.5925293 C6.94572682 71.52759378 5.36567628 70.4704617 3.78515625 69.4140625 C3.11355469 68.88554687 2.44195312 68.35703125 1.75 67.8125 C1.75 67.1525 1.75 66.4925 1.75 65.8125 C1.21117187 65.98523438 0.67234375 66.15796875 0.1171875 66.3359375 C-2.74531165 66.91221621 -5.21359393 66.64805056 -8.125 66.4375 C-15.42396172 66.32177467 -20.2708162 68.78508275 -26.44921875 72.28125 C-29.25 73.8125 -29.25 73.8125 -31.25 73.8125 C-31.25 74.4725 -31.25 75.1325 -31.25 75.8125 C-32.04289429 76.16078857 -32.04289429 76.16078857 -32.85180664 76.51611328 C-38.83646395 79.15875683 -44.78691797 81.86186917 -50.6875 84.6875 C-52.03231445 85.30044922 -52.03231445 85.30044922 -53.40429688 85.92578125 C-58.63543492 88.34107688 -58.63543492 88.34107688 -61.72265625 93.0078125 C-61.89667969 93.93335938 -62.07070312 94.85890625 -62.25 95.8125 C-64.25 97.8125 -64.25 97.8125 -67.25 98.125 C-68.24 98.021875 -69.23 97.91875 -70.25 97.8125 C-72.25 94.8125 -72.25 94.8125 -72 91.1875 C-71.7525 90.07375 -71.505 88.96 -71.25 87.8125 C-68.03548731 86.20524365 -64.81387464 86.75501815 -61.25 86.8125 C-61.25 86.1525 -61.25 85.4925 -61.25 84.8125 C-59.87084961 83.72192383 -59.87084961 83.72192383 -57.90234375 82.51953125 C-56.79234009 81.83274292 -56.79234009 81.83274292 -55.65991211 81.13208008 C-54.84401611 80.63474365 -54.02812012 80.13740723 -53.1875 79.625 C-51.45795966 78.54226334 -49.72881114 77.4589006 -48 76.375 C-45.05236679 74.53991359 -42.09747253 72.72041154 -39.125 70.92578125 C-35.96392017 69.01596219 -32.82547901 67.07248086 -29.6875 65.125 C-28.68259521 64.53243408 -27.67769043 63.93986816 -26.64233398 63.3293457 C-21.5137238 60.2708792 -21.5137238 60.2708792 -18.26391602 55.47827148 C-17.75312904 53.10631299 -17.75312904 53.10631299 -17.51147461 50.78637695 C-16.98105484 46.78222773 -14.26166073 45.20953609 -11.25 42.8125 C-10.26 42.8125 -9.27 42.8125 -8.25 42.8125 C-8.27279401 39.70670506 -8.35007819 36.60459516 -8.4375 33.5 C-8.44330078 32.61892578 -8.44910156 31.73785156 -8.45507812 30.83007812 C-8.53848634 28.39270478 -8.66695037 26.18162211 -9.25 23.8125 C-11.532584 21.7314486 -11.532584 21.7314486 -14.25 20.8125 C-16.80344249 18.53510535 -18.05915436 16.86921938 -18.671875 13.4765625 C-18.91162641 9.04116148 -18.76808636 5.80109926 -15.9375 2.25 C-11.13458665 -2.10613071 -5.98317374 -2.18615964 0 0 Z " fill="#C53E60" transform="translate(308.25,264.1875)"/>
<path d="M0 0 C1.21795861 2.43591721 0.94217098 3.67587117 0.75 6.375 C0.65084525 14.9518855 5.07996705 22.28090382 8.92089844 29.72143555 C10.17581022 32.37123005 11.19301411 35.06567269 12.21875 37.8125 C15.08537739 45.33161742 18.2703182 52.69519748 21.5 60.0625 C22.61597302 62.61528021 23.73023355 65.16880364 24.84375 67.72265625 C25.1123584 68.33783112 25.3809668 68.95300598 25.65771484 69.58682251 C27.81299046 74.53617202 29.89229682 79.51461545 31.93945312 84.50952148 C32.94701493 86.97388746 32.94701493 86.97388746 34.13867188 89.14477539 C35 91 35 91 35 94 C36.216875 94.061875 37.43375 94.12375 38.6875 94.1875 C43.17747208 94.7368051 45.17925756 96.40996417 48 100 C49.28317892 103.84953676 49.06643637 106.94738135 49 111 C48.34 111 47.68 111 47 111 C46.62875 112.175625 46.62875 112.175625 46.25 113.375 C45 116 45 116 43.25390625 117.203125 C40.43872684 118.19843973 38.63208723 117.79041894 35.6875 117.375 C27.01155923 117.24926173 22.23904923 122.81924647 16.08642578 128.22949219 C12.49996482 131.27290605 8.68538255 133.99613261 4.875 136.75 C-0.39908417 140.59024693 -5.63610425 144.46884867 -10.80859375 148.4453125 C-12.2479126 149.55181152 -12.2479126 149.55181152 -13.71630859 150.68066406 C-15.5882519 152.12388129 -17.45716257 153.5710421 -19.32275391 155.02246094 C-20.16628418 155.6724707 -21.00981445 156.32248047 -21.87890625 156.9921875 C-22.6272876 157.57339355 -23.37566895 158.15459961 -24.14672852 158.75341797 C-26 160 -26 160 -28 160 C-27.938125 161.051875 -27.87625 162.10375 -27.8125 163.1875 C-28 167 -28 167 -29.5234375 169.390625 C-31.29585328 172.52283066 -31.22146949 174.02611674 -30.8125 177.5625 C-30.69648438 178.60792969 -30.58046875 179.65335938 -30.4609375 180.73046875 C-29.87175371 184.90967921 -29.18496183 189.06363293 -28.40234375 193.2109375 C-27.97458938 196.17614737 -27.93381002 199.00821275 -28 202 C-27.34 202 -26.68 202 -26 202 C-25.49387936 204.8740422 -24.99493459 207.74902873 -24.5 210.625 C-24.35691406 211.43324219 -24.21382813 212.24148438 -24.06640625 213.07421875 C-23.32123749 217.43877864 -22.82727694 221.55238129 -23 226 C-22.01 226 -21.02 226 -20 226 C-17.68667514 229.46998729 -17.66042437 230.92509248 -18 235 C-18.66 235.99 -19.32 236.98 -20 238 C-23.5 238.375 -23.5 238.375 -27 238 C-29.29404844 234.55892734 -29.26293056 233.03160191 -29 229 C-28.67 228.67 -28.34 228.34 -28 228 C-27.67306225 224.07674696 -28.54740712 221.59714818 -30 218 C-30.491101 216.23797277 -30.94735645 214.46599406 -31.375 212.6875 C-31.62894531 211.64980469 -31.88289063 210.61210937 -32.14453125 209.54296875 C-32.59482838 207.67803952 -33.04496438 205.81307094 -33.49365234 203.94775391 C-34.01251333 201.79748836 -34.53738714 199.64874615 -35.0625 197.5 C-35.30589111 196.47652466 -35.30589111 196.47652466 -35.55419922 195.43237305 C-36.20295712 192.78366248 -36.83342639 190.32472833 -38.08203125 187.890625 C-39.31646986 185.34820676 -39.42447704 183.05732138 -39.625 180.25 C-39.69976562 179.26515625 -39.77453125 178.2803125 -39.8515625 177.265625 C-39.90054688 176.51796875 -39.94953125 175.7703125 -40 175 C-40.75925781 175.05285156 -41.51851563 175.10570312 -42.30078125 175.16015625 C-46.11062587 174.93410179 -47.22685356 173.44832946 -49.7578125 170.78515625 C-51 169 -51 169 -51.5625 165.375 C-52.65024357 161.78871079 -52.65024357 161.78871079 -55.79296875 160.66796875 C-61.22962901 158.92946609 -66.25262415 157.53597674 -72 158 C-73.423125 158.99 -73.423125 158.99 -74.875 160 C-78.29025468 162.185763 -80.08287647 162.66166156 -84.0390625 162.45703125 C-88.26445143 161.47222945 -90.80066173 158.5809459 -93.375 155.1875 C-94.62816493 150.80142274 -95.03962199 147.06343225 -92.97265625 142.9609375 C-90.38965175 139.48354086 -87.97785809 137.54557162 -83.6875 136.6875 C-78.86581519 136.52377556 -75.57290383 138.27491891 -71.75390625 141.09765625 C-68.8423144 144.25566344 -68.92751784 146.79603465 -69 151 C-59.7855269 154.80876086 -59.7855269 154.80876086 -50 155 C-48.84153564 153.98848877 -48.84153564 153.98848877 -47.65966797 152.95654297 C-44.32191117 150.5011746 -42.87048614 150.77122024 -38.8203125 151.1953125 C-31.15303542 151.42177216 -27.51997694 148.76061033 -21.875 143.875 C-20.05868184 142.39802837 -18.24094298 140.92280233 -16.421875 139.44921875 C-15.51888672 138.7020459 -14.61589844 137.95487305 -13.68554688 137.18505859 C-9.60800665 133.86742359 -5.3748642 130.77902104 -1.125 127.6875 C-0.35148193 127.11402832 0.42203613 126.54055664 1.21899414 125.94970703 C4.90709996 123.21855958 8.61908471 120.56394513 12.44921875 118.03515625 C20.6988568 112.91841527 20.6988568 112.91841527 24.875 104.5625 C24.95010128 103.04295075 24.99457613 101.52139433 25 100 C25.28883057 99.06522827 25.28883057 99.06522827 25.58349609 98.11157227 C26.08840814 95.55179251 25.66880473 94.41227432 24.671875 92.0234375 C24.36805908 91.27513672 24.06424316 90.52683594 23.7512207 89.75585938 C23.42081787 88.97017578 23.09041504 88.18449219 22.75 87.375 C22.08954669 85.74857094 21.43196494 84.12097268 20.77734375 82.4921875 C20.46394043 81.71327148 20.15053711 80.93435547 19.82763672 80.13183594 C18.58234287 76.92419408 17.63365593 73.66106167 16.71728516 70.34814453 C16.0440627 68.1442461 15.23694312 66.10182448 14.33203125 63.984375 C10.86212073 55.41583658 8.20125012 46.54591843 5.375 37.75 C4.78417832 35.91916619 4.19303498 34.08843616 3.6015625 32.2578125 C2.76856807 29.67954812 1.93601497 27.10115244 1.10604858 24.52191162 C0.62201477 23.01796984 0.13487455 21.5150227 -0.35601807 20.01330566 C-0.93493445 18.20341695 -1.46549517 16.37823046 -1.98974609 14.55175781 C-2.82469053 11.68150469 -2.82469053 11.68150469 -6.0625 10.1875 C-7.031875 9.795625 -8.00125 9.40375 -9 9 C-10 8 -10 8 -10.25 5.125 C-10 2 -10 2 -8.9375 0.0625 C-5.81857551 -1.64787795 -3.34442199 -0.80513863 0 0 Z " fill="#D14E6F" transform="translate(416,102)"/>
<path d="M0 0 C2.76546919 2.05434854 3.85023283 3.33606402 4.61328125 6.71875 C6.62016256 11.4674269 9.99270126 13.76367681 14 16.875 C14.77166504 17.49141357 15.54333008 18.10782715 16.33837891 18.74291992 C18.55010762 20.50677706 20.77395263 22.25427692 23 24 C24.79300845 25.43582603 26.58497847 26.87295194 28.375 28.3125 C29.13683594 28.90675781 29.89867187 29.50101563 30.68359375 30.11328125 C32.3948158 31.50707594 34.04599223 32.97533784 35.66015625 34.48046875 C41.82173926 40.13209078 41.82173926 40.13209078 49.8125 41.375 C50.71355469 41.29121094 51.61460937 41.20742187 52.54296875 41.12109375 C55.98160824 40.95162185 58.17130635 42.13901733 61 44 C61.33 44.33 61.66 44.66 62 45 C68.32807192 44.65483244 74.57211335 43.42596648 80 40 C81.34274872 36.63384485 81.34274872 36.63384485 82 33 C84.06184535 29.6938129 86.29328478 27.40650853 90.1484375 26.48828125 C95.82168092 26.20752347 99.42757938 27.73398527 104 31 C106.46865913 34.70298869 106.66263104 37.03904187 106.56640625 41.4140625 C105.68099632 45.45641679 103.60325123 47.34443658 100.359375 49.77734375 C96.50795416 51.77319594 93.19664629 52.02921554 89 51 C85.9375 49.125 85.9375 49.125 84 47 C84 46.34 84 45.68 84 45 C81.91534475 45.62057656 79.83232072 46.2466345 77.75 46.875 C76.58984375 47.22304688 75.4296875 47.57109375 74.234375 47.9296875 C71.11005865 48.87440789 71.11005865 48.87440789 68.765625 50.1328125 C67 51 67 51 64 51 C64.103125 52.051875 64.20625 53.10375 64.3125 54.1875 C64 58 64 58 61.625 60.8125 C60.75875 61.534375 59.8925 62.25625 59 63 C58.34 63.66 57.68 64.32 57 65 C55.68 65 54.36 65 53 65 C52.87882812 65.56847656 52.75765625 66.13695312 52.6328125 66.72265625 C52.38144531 67.88087891 52.38144531 67.88087891 52.125 69.0625 C51.88136719 70.19365234 51.88136719 70.19365234 51.6328125 71.34765625 C50.22371124 77.25370412 48.33914078 82.93120151 46.25 88.625 C42.91797663 97.86794153 40.24817738 107.27457492 37.62695312 116.73925781 C36.48698789 120.84988013 35.34927556 124.95217332 34 129 C33.656509 134.33295432 33.656509 134.33295432 36 139 C36.2475 140.546875 36.2475 140.546875 36.5 142.125 C36.665 143.07375 36.83 144.0225 37 145 C37.66 145.33 38.32 145.66 39 146 C39 146.66 39 147.32 39 148 C41.97 148.99 44.94 149.98 48 151 C48 151.66 48 152.32 48 153 C48.69222656 153.2371875 49.38445312 153.474375 50.09765625 153.71875 C53.54270501 155.23957906 56.42421664 157.27809687 59.4375 159.5 C60.67305319 160.39730603 61.90873419 161.2944361 63.14453125 162.19140625 C64.09320068 162.88387451 64.09320068 162.88387451 65.06103516 163.59033203 C68.23241914 165.89599447 71.42999696 168.16474402 74.625 170.4375 C80.59795598 174.6902513 80.59795598 174.6902513 83.24609375 176.73046875 C85.01000944 178.1311645 85.01000944 178.1311645 87.4375 178.875 C90.07053334 180.03096586 91.41912328 181.37221375 93.359375 183.44140625 C99.10122985 188.89616836 106.03200222 193.28373452 113 197 C113 196.34 113 195.68 113 195 C115.8125 194.75 115.8125 194.75 119 195 C120.9375 196.6875 120.9375 196.6875 122 199 C121.7434556 202.50610679 120.9814066 204.0278901 119 207 C116.0625 207.4375 116.0625 207.4375 113 207 C110.99970064 205.06867648 110.12365375 203.77973239 109.68701172 201.02636719 C108.73150843 198.20807389 107.41573502 197.72022009 104.8203125 196.328125 C103.92417236 195.83650879 103.02803223 195.34489258 102.10473633 194.83837891 C101.12142334 194.31421387 100.13811035 193.79004883 99.125 193.25 C97.02580048 192.09916473 94.92821099 190.94538898 92.83203125 189.7890625 C91.16648193 188.87302246 91.16648193 188.87302246 89.46728516 187.93847656 C83.51674967 184.61167387 77.66614482 181.11861305 71.8125 177.625 C69.63159929 176.32537168 67.45061248 175.02588784 65.26953125 173.7265625 C63.72386475 172.80278809 63.72386475 172.80278809 62.14697266 171.86035156 C57.88515836 169.34095475 53.58201632 166.8947911 49.2722168 164.45849609 C47 163 47 163 46 161 C44.30870168 160.27042033 42.61447548 159.54643813 40.90234375 158.8671875 C39 158 39 158 35.875 155.75 C32.38678996 153.62674172 31.81164793 154.09591952 28 155 C24.28047705 155.36931434 20.70919587 155.52008756 17 155 C13.62321159 152.02521021 12.25829235 149.17703551 11.7265625 144.6953125 C11.54633168 140.13408627 11.49543985 137.74200021 14.125 133.875 C17.41830531 131.72719219 19.14516221 131.55176305 23 132 C23.0825 131.113125 23.165 130.22625 23.25 129.3125 C23.92924633 124.47902249 25.48459462 119.91898871 26.96484375 115.28125 C28.04084512 111.87052869 29.01851932 108.43898657 30 105 C30.7217747 102.66436952 31.45147083 100.33117771 32.1875 98 C32.62278303 96.60689176 33.05765223 95.21365417 33.4921875 93.8203125 C34.29461012 91.24928492 35.10145493 88.67982688 35.91503906 86.11230469 C36.88883782 83.0356509 37.8512758 79.95560275 38.8125 76.875 C39.12662842 75.89144531 39.44075684 74.90789062 39.7644043 73.89453125 C41.88170607 67.08852715 41.88170607 67.08852715 42 60 C41.505 59.071875 41.505 59.071875 41 58.125 C39.42919764 54.78704498 39.87800038 51.65998861 40 48 C39.40889938 47.73683487 38.81779877 47.47366974 38.20878601 47.20252991 C35.89813337 45.94454073 34.46601599 44.65992437 32.65942383 42.75952148 C32.02809036 42.10221542 31.3967569 41.44490936 30.74629211 40.76768494 C30.07333603 40.05930984 29.40037994 39.35093475 28.70703125 38.62109375 C27.25808142 37.12736228 25.80818141 35.63455202 24.35742188 34.14257812 C22.08126178 31.7922888 19.81180968 29.43677334 17.55834961 27.06469727 C15.37624222 24.77328164 13.16927918 22.50837374 10.95703125 20.24609375 C10.29419632 19.53569443 9.63136139 18.8252951 8.94844055 18.09336853 C5.45240801 14.55919518 3.1795948 12.65389324 -1.87231445 12.23461914 C-2.98277885 12.24568443 -2.98277885 12.24568443 -4.11567688 12.25697327 C-5.04841682 12.1297715 -5.04841682 12.1297715 -6 12 C-8.31282587 8.53076119 -8.42478586 7.07794425 -8 3 C-5.90969097 -0.30048795 -3.75401597 -0.64092956 0 0 Z " fill="#EA7C98" transform="translate(176,213)"/>
<path d="M0 0 C3.59994961 1.91646587 5.61868199 3.45685228 7.05859375 7.24609375 C7.32421875 9.53515625 7.32421875 9.53515625 7.30859375 11.87109375 C7.31632812 13.03511719 7.31632812 13.03511719 7.32421875 14.22265625 C7.05859375 16.24609375 7.05859375 16.24609375 5.05859375 18.24609375 C4.66095112 20.23430688 4.32084026 22.23553714 4.05859375 24.24609375 C4.71859375 24.24609375 5.37859375 24.24609375 6.05859375 24.24609375 C6.32929688 25.28636719 6.6 26.32664062 6.87890625 27.3984375 C11.90981272 46.05089512 18.43485333 64.23046961 24.75512695 82.47509766 C25.53396587 84.72831848 26.30469759 86.98440528 27.05859375 89.24609375 C27.78046875 89.30796875 28.50234375 89.36984375 29.24609375 89.43359375 C32.94258449 90.50146885 34.58998243 92.35429191 37.05859375 95.24609375 C37.05859375 95.90609375 37.05859375 96.56609375 37.05859375 97.24609375 C37.99445313 97.20742187 38.9303125 97.16875 39.89453125 97.12890625 C44.93193394 97.13143634 49.75526607 98.16264347 54.68359375 99.12109375 C56.65215609 99.48928601 58.62090564 99.8564788 60.58984375 100.22265625 C62.00523437 100.48804199 62.00523437 100.48804199 63.44921875 100.75878906 C79.52889237 104.38822027 79.52889237 104.38822027 95.05859375 101.24609375 C97.71350639 101.56215478 99.67064621 102.05211998 102.05859375 103.24609375 C102.41859375 109.60609375 102.41859375 109.60609375 100.93359375 112.24609375 C98.04052362 113.78906449 96.122191 113.15865463 93.05859375 112.24609375 C92.39859375 111.25609375 91.73859375 110.26609375 91.05859375 109.24609375 C89.16982314 108.74135529 89.16982314 108.74135529 86.96704102 108.73779297 C86.1217836 108.70120575 85.27652618 108.66461853 84.40565491 108.62692261 C83.02923073 108.58923264 83.02923073 108.58923264 81.625 108.55078125 C80.20343849 108.49411789 80.20343849 108.49411789 78.75315857 108.43630981 C75.70947008 108.31758886 72.66552636 108.21868867 69.62109375 108.12109375 C66.60906421 108.01237367 63.59722665 107.89954057 60.58543396 107.78445435 C58.71113968 107.71416794 56.83667705 107.64818184 54.96205139 107.58737183 C48.63433413 107.36803148 42.35823952 106.87725482 36.05859375 106.24609375 C35.76984375 106.87128906 35.48109375 107.49648437 35.18359375 108.140625 C33.57936723 111.14297949 32.18970191 111.87623393 29.05859375 113.24609375 C27.43391754 113.28464539 25.80871978 113.30365416 24.18359375 113.30859375 C21.01831654 113.58342321 19.41647681 113.978316 16.85546875 115.89453125 C10.30297253 123.69892716 11.40100573 132.66409692 12.05859375 142.24609375 C11.39859375 142.24609375 10.73859375 142.24609375 10.05859375 142.24609375 C9.71828125 143.14328125 9.71828125 143.14328125 9.37109375 144.05859375 C7.63429846 146.95325257 6.14029015 147.8764509 3.05859375 149.24609375 C-1.07444429 149.60864095 -4.60097839 149.8953986 -7.94140625 147.24609375 C-11.31790645 142.65030181 -12.64472768 139.05948378 -12.41015625 133.33203125 C-11.64869999 129.94355089 -9.59854133 128.31995528 -6.94140625 126.24609375 C-6.61140625 125.91609375 -6.28140625 125.58609375 -5.94140625 125.24609375 C-3.92176426 125.17365322 -1.89973501 125.16232187 0.12109375 125.18359375 C1.22582031 125.19261719 2.33054687 125.20164062 3.46875 125.2109375 C4.32339844 125.22253906 5.17804688 125.23414063 6.05859375 125.24609375 C6.31253906 124.68792969 6.56648438 124.12976563 6.828125 123.5546875 C8.7167318 120.0113014 11.24739345 116.95520516 13.6953125 113.78125 C15.3127506 111.32757445 15.3127506 111.32757445 14.828125 108.5546875 C14.12212287 106.25530087 14.12212287 106.25530087 13.05859375 104.24609375 C12.72058509 98.92245739 12.72058509 98.92245739 13.05859375 96.24609375 C14.0387975 95.22668185 15.03662383 94.22363019 16.05859375 93.24609375 C15.60136292 88.61116284 14.20898651 84.45637615 12.66015625 80.08203125 C12.42452972 79.40870758 12.1889032 78.73538391 11.94613647 78.04165649 C10.94806175 75.18969064 9.93894798 72.34167561 8.9296875 69.49365234 C6.15203405 61.63514721 3.56837651 53.86342143 1.65380859 45.73925781 C0.47250563 40.79115861 -1.24163055 36.03448626 -2.94140625 31.24609375 C-3.17601562 30.50746094 -3.410625 29.76882812 -3.65234375 29.0078125 C-4.33511079 26.89211621 -4.33511079 26.89211621 -5.94140625 24.24609375 C-8.89165535 22.92924098 -8.89165535 22.92924098 -11.94140625 22.24609375 C-12.41802106 21.74306575 -12.89463587 21.24003775 -13.38569355 20.72176647 C-16.17150546 18.07928201 -20.17410817 18.85974131 -23.8190918 18.90551758 C-24.72661194 18.9050795 -25.63413208 18.90464142 -26.56915283 18.90419006 C-29.57236151 18.90628206 -32.5750137 18.92963263 -35.578125 18.953125 C-37.65891719 18.95871949 -39.73971332 18.96299028 -41.82051086 18.96598816 C-47.30000701 18.97744849 -52.77926501 19.00692602 -58.25866699 19.0401001 C-63.84884418 19.07077531 -69.4390598 19.08448805 -75.02929688 19.09960938 C-86.0001047 19.13179448 -96.97073568 19.18300528 -107.94140625 19.24609375 C-108.06515625 19.86484375 -108.18890625 20.48359375 -108.31640625 21.12109375 C-108.94140625 23.24609375 -108.94140625 23.24609375 -110.94140625 25.24609375 C-113.94140625 25.55859375 -113.94140625 25.55859375 -116.94140625 25.24609375 C-119.39038472 21.57262604 -119.25678341 19.58252976 -118.94140625 15.24609375 C-116.94140625 13.24609375 -116.94140625 13.24609375 -114.99609375 13.05078125 C-112.97786458 13.11588542 -110.95963542 13.18098958 -108.94140625 13.24609375 C-108.94140625 14.23609375 -108.94140625 15.22609375 -108.94140625 16.24609375 C-107.83885498 16.11912109 -106.73630371 15.99214844 -105.6003418 15.86132812 C-91.67621459 14.30265504 -77.74182637 13.39618176 -63.75805664 12.56884766 C-52.85213928 11.91804085 -42.03188139 11.16634781 -31.20703125 9.66137695 C-28.17234374 9.27546162 -25.18373819 9.06403502 -22.12890625 8.93359375 C-19.85463557 8.78628307 -19.85463557 8.78628307 -17.94140625 8.24609375 C-15.89721941 5.9788963 -15.89721941 5.9788963 -14.94140625 3.24609375 C-11.09373773 -1.24285286 -5.54677883 -2.15398051 0 0 Z " fill="#F0A3B6" transform="translate(321.94140625,76.75390625)"/>
<path d="M0 0 C3.0625 0.375 3.0625 0.375 4.9375 2 C6.33078383 4.94137697 6.28181821 7.15833296 6.0625 10.375 C5.134375 10.519375 4.20625 10.66375 3.25 10.8125 C0.0250834 11.99745534 0.0250834 11.99745534 -0.86328125 14.1953125 C-1.3485743 15.75150361 -1.80219573 17.31778606 -2.23046875 18.890625 C-2.91794195 21.3062767 -3.80338784 23.42015072 -4.875 25.6875 C-6.91433001 30.12922255 -8.37381971 34.68082837 -9.859375 39.33203125 C-10.92294181 42.33391004 -12.21001064 45.08719096 -13.625 47.9375 C-16.11967218 53.24252818 -17.32536684 58.48738024 -16.9375 64.375 C-15.9475 65.86 -15.9475 65.86 -14.9375 67.375 C-14.72566789 71.61164216 -14.73048048 74.67630911 -15.9375 78.75 C-15.9375 84.68682439 -11.83097809 88.17434416 -7.9375 92.375 C-5.54720114 94.76529886 -5.04759261 94.5573674 -1.8125 94.625 C2.8134809 95.08984735 5.98770662 96.38284356 9.56640625 99.37109375 C12.0432505 102.68864231 12.15494434 105.62532005 11.83984375 109.671875 C10.6818417 113.6986962 8.75631137 115.73153678 5.41796875 118.18359375 C1.53607637 120.14707165 -1.7330938 120.50755222 -5.9375 119.375 C-8.99419618 117.62283524 -11.33583374 115.57833252 -12.9375 112.375 C-13.03334979 110.5228437 -13.06733606 108.66712847 -13.0625 106.8125 C-13.06507813 105.82121094 -13.06765625 104.82992187 -13.0703125 103.80859375 C-12.9375 101.375 -12.9375 101.375 -11.9375 100.375 C-11.47088701 96.99648566 -11.77146294 95.63067437 -13.65234375 92.734375 C-14.38582031 91.87328125 -15.11929688 91.0121875 -15.875 90.125 C-16.60589844 89.25359375 -17.33679688 88.3821875 -18.08984375 87.484375 C-19.01588688 86.42715874 -19.94370372 85.36879628 -20.9375 84.375 C-23.87924438 84.25147419 -26.81765626 84.18486087 -29.76171875 84.14453125 C-33.2197411 83.30660948 -33.49804078 82.93875197 -35.60546875 80.3515625 C-37.51962214 78.27462096 -38.53303661 77.46110622 -41.32397461 76.86694336 C-44.42179828 76.74087389 -47.46461232 76.80722548 -50.5625 76.9375 C-51.74005859 76.96561768 -52.91761719 76.99373535 -54.13085938 77.02270508 C-56.82804017 77.08843612 -59.52329649 77.1659905 -62.21972656 77.25292969 C-66.62404581 77.38219741 -71.02619872 77.41276578 -75.43222046 77.43135071 C-79.43553667 77.44999761 -83.43847838 77.49079413 -87.44158936 77.53463745 C-89.43636763 77.55318928 -91.43122608 77.56453961 -93.42608643 77.56863403 C-96.25365673 77.57802297 -99.0791193 77.61926291 -101.90625 77.66796875 C-102.75927704 77.66407135 -103.61230408 77.66017395 -104.49118042 77.65615845 C-109.50787286 77.73369453 -109.50787286 77.73369453 -113.33007812 80.8684082 C-114.12575195 82.10917114 -114.12575195 82.10917114 -114.9375 83.375 C-117.6875 84.1875 -117.6875 84.1875 -119.9375 84.375 C-120.01226562 85.09300781 -120.08703125 85.81101562 -120.1640625 86.55078125 C-121.38150234 96.13513606 -124.14077233 104.91358058 -127.17480469 114.05419922 C-128.28714804 117.43894182 -129.32903355 120.84430542 -130.375 124.25 C-131.99857359 129.49651124 -133.71518883 134.70615881 -135.4765625 139.90795898 C-139.33212644 151.29968364 -142.74060574 162.78204252 -145.9375 174.375 C-144.9475 174.705 -143.9575 175.035 -142.9375 175.375 C-142.5775 180.775 -142.5775 180.775 -144.0625 183.25 C-146.80666239 184.89649743 -148.8069571 184.77464378 -151.9375 184.375 C-154.50437367 180.5246895 -153.77038724 178.78930237 -152.9375 174.375 C-151.2875 174.045 -149.6375 173.715 -147.9375 173.375 C-147.97488281 172.40046875 -148.01226562 171.4259375 -148.05078125 170.421875 C-148.04744649 165.99775545 -147.13925627 161.91390724 -146.125 157.625 C-145.94340332 156.82932617 -145.76180664 156.03365234 -145.57470703 155.21386719 C-144.5963359 150.98200333 -143.52319352 146.79723612 -142.3125 142.625 C-140.78541877 137.30085194 -140.10930659 131.93468474 -139.46484375 126.44140625 C-138.97395291 123.58696691 -138.25358894 121.89708678 -136.9375 119.375 C-136.42499544 117.36722116 -135.97400274 115.34338707 -135.5625 113.3125 C-135.31242187 112.08660156 -135.06234375 110.86070312 -134.8046875 109.59765625 C-134.66901367 108.92750488 -134.53333984 108.25735352 -134.39355469 107.56689453 C-133.89328932 105.16251421 -133.35906718 102.7671343 -132.8203125 100.37109375 C-132.63259277 99.52232666 -132.44487305 98.67355957 -132.25146484 97.79907227 C-131.88050561 96.12236867 -131.50339457 94.44701223 -131.11962891 92.77319336 C-130.86705322 91.61315796 -130.86705322 91.61315796 -130.609375 90.4296875 C-130.4556543 89.74374512 -130.30193359 89.05780273 -130.14355469 88.35107422 C-129.79422111 85.00094861 -130.52095124 82.94150632 -132.5 80.25 C-134.62378008 76.00243984 -134.64175626 72.03687021 -133.9375 67.375 C-131.83245409 63.81819828 -130.85343192 62.68031064 -126.9375 61.375 C-122.35468134 60.84252012 -118.35560728 60.70051581 -114.375 63.25 C-113.1684375 64.301875 -113.1684375 64.301875 -111.9375 65.375 C-111.9375 66.035 -111.9375 66.695 -111.9375 67.375 C-87.5175 67.375 -63.0975 67.375 -37.9375 67.375 C-37.4425 65.395 -37.4425 65.395 -36.9375 63.375 C-35.8125 61.6875 -35.8125 61.6875 -33.9375 60.375 C-30.25 59.6875 -30.25 59.6875 -26.9375 59.375 C-26.9375 58.385 -26.9375 57.395 -26.9375 56.375 C-26.2775 56.375 -25.6175 56.375 -24.9375 56.375 C-24.68750244 55.54540771 -24.43750488 54.71581543 -24.17993164 53.86108398 C-22.77152526 49.90929881 -20.98719198 46.31489894 -19.05859375 42.59765625 C-18.29457953 41.09978395 -17.5309184 39.60173149 -16.76757812 38.10351562 C-15.57132668 35.76676085 -14.37201199 33.43172134 -13.16625977 31.09985352 C-11.99630074 28.83280406 -10.83918917 26.55955328 -9.68359375 24.28515625 C-9.3231749 23.59639908 -8.96275604 22.90764191 -8.59141541 22.19801331 C-5.80150294 16.67529542 -4.8978039 11.7964622 -5 5.5625 C-4.91681187 1.31990522 -4.19811273 0.53592928 0 0 Z " fill="#F0B9C7" transform="translate(282.9375,106.625)"/>
<path d="M0 0 C1.40253899 4.45965496 0.09021418 7.85983993 -1.25 12.1875 C-6.35118037 29.54990865 -8.25104192 46.81110925 -8.3125 64.875 C-8.31511841 65.61489166 -8.31773682 66.35478333 -8.32043457 67.11709595 C-8.32792014 87.0444931 -6.11163033 106.95992089 0 126 C0.31275879 127.0216626 0.31275879 127.0216626 0.63183594 128.06396484 C12.84802257 167.96603742 35.44508793 199.12971704 65 228 C62 228 62 228 59.96289062 226.25585938 C59.20169922 225.45986328 58.44050781 224.66386719 57.65625 223.84375 C56.82222656 222.98652344 55.98820312 222.12929688 55.12890625 221.24609375 C53.37630208 219.41536458 51.62369792 217.58463542 49.87109375 215.75390625 C49.03707031 214.89667969 48.20304687 214.03945313 47.34375 213.15625 C46.20196289 211.96225586 46.20196289 211.96225586 45.03710938 210.74414062 C43.06715196 208.67481428 43.06715196 208.67481428 40 209 C38.18408988 207.06446067 36.59753193 205.1687857 35 203.0625 C34.51797119 202.43496826 34.03594238 201.80743652 33.53930664 201.16088867 C4.65008907 162.95922409 -11.07368121 116.91811535 -11.375 69 C-11.37956207 68.29577911 -11.38412415 67.59155823 -11.38882446 66.86599731 C-11.41537036 55.24166483 -10.41541611 43.92755976 -8.6875 32.4375 C-8.5274649 31.35529175 -8.5274649 31.35529175 -8.36419678 30.2512207 C-7.24954542 22.86419711 -5.96025219 15.89384817 -3 9 C-2.42606334 7.33723702 -1.8609133 5.67135481 -1.3125 4 C-1.06113281 3.236875 -0.80976562 2.47375 -0.55078125 1.6875 C-0.36902344 1.130625 -0.18726562 0.57375 0 0 Z " fill="#D9BBC3" transform="translate(99,174)"/>
<path d="M0 0 C17.16111379 -0.51540829 33.22833215 0.24164306 50 4 C50.69448242 4.14953125 51.38896484 4.2990625 52.10449219 4.453125 C68.29818525 8.01326515 83.91652123 14.55309432 98.5546875 22.23828125 C101.99162283 23.99571644 105.43766698 25.51949075 109 27 C109 27.66 109 28.32 109 29 C109.67417969 29.23074219 110.34835937 29.46148437 111.04296875 29.69921875 C114.77721449 31.34189224 117.95728525 33.50984383 121.3125 35.8125 C122.64904379 36.71977585 123.98627697 37.62603701 125.32421875 38.53125 C125.96020996 38.96179688 126.59620117 39.39234375 127.25146484 39.8359375 C129.87176821 41.58036733 132.56080077 43.20046054 135.2890625 44.76953125 C137.80316104 46.57761582 139.82548054 48.79519476 142 51 C143.29149816 52.21796637 144.58886825 53.42972292 145.890625 54.63671875 C161.48698072 69.11382965 161.48698072 69.11382965 168 77 C168.75925781 77.91007812 169.51851562 78.82015625 170.30078125 79.7578125 C175.64828442 86.42726622 180.29997425 93.42846955 184.8125 100.6875 C185.62122559 101.98747925 185.62122559 101.98747925 186.44628906 103.3137207 C189.0607849 107.58966291 191.5781956 111.91609259 193.94921875 116.33203125 C194.36905029 117.10909424 194.78888184 117.88615723 195.22143555 118.68676758 C196.16801662 121.49920272 195.80160698 123.18206952 195 126 C192.00838631 122.37067555 190.05544519 118.35425587 187.9375 114.1875 C181.76834581 102.3046497 174.39816878 91.41922342 166 81 C165.46890625 80.28457031 164.9378125 79.56914063 164.390625 78.83203125 C132.86732619 37.19616977 80.58084516 10.31489517 29.5 3.16015625 C25.00810801 2.61983492 20.51497874 2.27413102 16 2 C14.429638 1.89133802 12.85932571 1.78195531 11.2890625 1.671875 C7.52755346 1.41695285 3.765019 1.19733893 0 1 C0 0.67 0 0.34 0 0 Z " fill="#C3526F" transform="translate(303,28)"/>
<path d="M0 0 C1.32 0.33 2.64 0.66 4 1 C2.94282781 3.19566532 1.91457445 5.11276173 0.4375 7.0625 C-1.58216278 11.18963698 -1.32677182 14.78795151 -1.1875 19.3125 C-1.17396484 20.14845703 -1.16042969 20.98441406 -1.14648438 21.84570312 C-1.11131217 23.89741498 -1.05751048 25.94879275 -1 28 C-1.66 28 -2.32 28 -3 28 C-3.226875 28.598125 -3.45375 29.19625 -3.6875 29.8125 C-5.42429529 32.70715882 -6.9183036 33.63035715 -10 35 C-14.13303804 35.3625472 -17.65957214 35.64930485 -21 33 C-24.3765002 28.40420806 -25.70332143 24.81339003 -25.46875 19.0859375 C-24.70729374 15.69745714 -22.65713508 14.07386153 -20 12 C-19.67 11.67 -19.34 11.34 -19 11 C-16.98035801 10.92755947 -14.95832876 10.91622812 -12.9375 10.9375 C-11.28041016 10.95103516 -11.28041016 10.95103516 -9.58984375 10.96484375 C-8.73519531 10.97644531 -7.88054687 10.98804688 -7 11 C-6.72414063 10.41734375 -6.44828125 9.8346875 -6.1640625 9.234375 C-5.04344446 7.08339003 -3.80424386 5.20580738 -2.375 3.25 C-1.92898438 2.63640625 -1.48296875 2.0228125 -1.0234375 1.390625 C-0.68570312 0.93171875 -0.34796875 0.4728125 0 0 Z " fill="#EC7996" transform="translate(335,191)"/>
<path d="M0 0 C3.99225508 1.56514546 6.58266545 3.37399817 9 7 C9.73931161 10.46628065 9.75883751 13.53551426 9 17 C6.39438607 20.91187661 3.24779458 23.46038044 -1.359375 24.56640625 C-5.42262098 24.77774958 -7.55099846 24.2748989 -11.0625 22.125 C-13 20 -13 20 -13 18 C-13.67546875 18.2165625 -14.3509375 18.433125 -15.046875 18.65625 C-15.93890625 18.9346875 -16.8309375 19.213125 -17.75 19.5 C-18.63171875 19.7784375 -19.5134375 20.056875 -20.421875 20.34375 C-23 21 -23 21 -27 21 C-25.60440273 17.6273066 -24.1078412 15.91954898 -21 14 C-18.75 13.3125 -18.75 13.3125 -17 13 C-16.79375 11.96875 -16.5875 10.9375 -16.375 9.875 C-13.94624198 1.65072285 -8.37153158 -1.72953517 0 0 Z " fill="#EC7F9B" transform="translate(273,240)"/>
<path d="M0 0 C3.0625 0.375 3.0625 0.375 4.9375 2.0625 C6.26857683 4.79860236 6.52483717 6.36980842 6.0625 9.375 C5 11.125 5 11.125 3.0625 12.375 C1.45761719 12.51421875 1.45761719 12.51421875 -0.1796875 12.65625 C-4.52995677 13.48831814 -6.83743644 15.21970249 -10 18.125 C-10.55091309 18.6101709 -11.10182617 19.0953418 -11.66943359 19.59521484 C-16.47930805 23.86297891 -21.16370092 28.27439961 -25.84814453 32.67895508 C-29.25486899 35.86844051 -32.72558676 38.89837595 -36.375 41.8125 C-41.62878888 46.0139836 -46.47755763 50.57408921 -51.35961914 55.19384766 C-56.67995233 60.20146159 -62.22156007 64.82258144 -67.9375 69.375 C-69.85433709 71.29183709 -69.36500305 74.74057292 -69.55859375 77.34375 C-69.68363281 78.0140625 -69.80867188 78.684375 -69.9375 79.375 C-70.9275 79.87 -70.9275 79.87 -71.9375 80.375 C-72.77536315 76.79856562 -72.87034714 73.94456815 -71.9375 70.375 C-68.80870853 66.6224952 -65.26093599 63.62435153 -61.45019531 60.58544922 C-59.51397135 59.03609505 -57.66378463 57.39939557 -55.8125 55.75 C-55.18730469 55.20859375 -54.56210937 54.6671875 -53.91796875 54.109375 C-51.62616845 52.10235462 -49.37753248 50.05097149 -47.125 48 C-43.66219918 44.87077173 -40.13070997 41.86999651 -36.5 38.9375 C-26.55915157 31.62386149 -26.55915157 31.62386149 -18.9375 22.375 C-26.33166218 27.62983998 -33.71454474 32.88555401 -40.9375 38.375 C-41.5975 38.045 -42.2575 37.715 -42.9375 37.375 C-36.10065298 31.798743 -29.10872559 26.51190123 -21.9375 21.375 C-20.702756 20.47837252 -19.46839997 19.58121058 -18.234375 18.68359375 C-16.9689173 17.76799789 -15.70329421 16.85263058 -14.4375 15.9375 C-13.83776367 15.50002441 -13.23802734 15.06254883 -12.62011719 14.61181641 C-10.06600892 12.77445932 -7.9427264 11.37674213 -4.9375 10.375 C-4.97875 9.09625 -5.02 7.8175 -5.0625 6.5 C-5.1328125 4.3203125 -5.1328125 4.3203125 -4.9375 2.375 C-2.9375 0.375 -2.9375 0.375 0 0 Z " fill="#88122F" transform="translate(462.9375,297.625)"/>
<path d="M0 0 C4.06397662 1.25031135 7.61593874 2.74752537 11.30078125 4.86328125 C12.76741211 5.69956055 12.76741211 5.69956055 14.26367188 6.55273438 C15.26978516 7.13345703 16.27589844 7.71417969 17.3125 8.3125 C19.30843807 9.45469917 21.30452979 10.59662989 23.30078125 11.73828125 C24.25678223 12.28693848 25.2127832 12.8355957 26.19775391 13.40087891 C30.11303121 15.63515895 34.05400254 17.82050088 38 20 C35.03 17.69 32.06 15.38 29 13 C30.32 12.67 31.64 12.34 33 12 C35.73183432 13.82122288 37.87381499 15.86639234 40.125 18.25 C44.94022643 22.85586876 50.61896648 27.87298883 57 30 C57 29.34 57 28.68 57 28 C59.8125 27.75 59.8125 27.75 63 28 C64.9375 29.6875 64.9375 29.6875 66 32 C65.7434556 35.50610679 64.9814066 37.0278901 63 40 C60.0625 40.4375 60.0625 40.4375 57 40 C54.99970064 38.06867648 54.12365375 36.77973239 53.68701172 34.02636719 C52.73150843 31.20807389 51.41573502 30.72022009 48.8203125 29.328125 C47.92344727 28.83618652 47.02658203 28.34424805 46.10253906 27.83740234 C44.62865723 27.05163818 44.62865723 27.05163818 43.125 26.25 C41.03759635 25.10422954 38.95172467 23.95566479 36.8671875 22.8046875 C35.75827148 22.19463867 34.64935547 21.58458984 33.50683594 20.95605469 C27.96520542 17.88292254 22.50630074 14.66761573 17.05316162 11.4407959 C15.27118441 10.38752148 13.48552681 9.34068742 11.69970703 8.29394531 C10.60770996 7.64780273 9.51571289 7.00166016 8.390625 6.3359375 C7.42157227 5.76407715 6.45251953 5.1922168 5.45410156 4.60302734 C3.32559018 3.21267659 1.69275282 1.87965206 0 0 Z " fill="#A8304E" transform="translate(232,380)"/>
<path d="M0 0 C2.01822917 0.06510417 4.03645833 0.13020833 6.0546875 0.1953125 C6.0546875 1.1853125 6.0546875 2.1753125 6.0546875 3.1953125 C7.3334375 3.0509375 8.6121875 2.9065625 9.9296875 2.7578125 C11.63799599 2.57008629 13.34633075 2.38259902 15.0546875 2.1953125 C15.89386719 2.09992188 16.73304688 2.00453125 17.59765625 1.90625 C22.78609695 1.34316341 27.83595711 1.09866934 33.0546875 1.1953125 C30.0546875 3.1953125 30.0546875 3.1953125 15.0546875 4.1953125 C43.1046875 4.1953125 71.1546875 4.1953125 100.0546875 4.1953125 C100.0546875 4.5253125 100.0546875 4.8553125 100.0546875 5.1953125 C90.06043046 6.43357088 80.09282275 6.32344268 70.04296875 6.29296875 C68.2202305 6.29110019 66.39749174 6.28967836 64.57475281 6.28868103 C59.81225155 6.28489034 55.04978153 6.27509009 50.28729248 6.26397705 C45.41353782 6.25368821 40.53977805 6.2491675 35.66601562 6.24414062 C26.12889264 6.23346423 16.59179268 6.21642998 7.0546875 6.1953125 C6.9309375 6.8140625 6.8071875 7.4328125 6.6796875 8.0703125 C6.0546875 10.1953125 6.0546875 10.1953125 4.0546875 12.1953125 C1.0546875 12.5078125 1.0546875 12.5078125 -1.9453125 12.1953125 C-4.39429097 8.52184479 -4.26068966 6.53174851 -3.9453125 2.1953125 C-1.9453125 0.1953125 -1.9453125 0.1953125 0 0 Z " fill="#AA9499" transform="translate(206.9453125,89.8046875)"/>
<path d="M0 0 C3.05507473 3.61360161 5.36817572 7.28398297 7.625 11.4375 C18.9151986 31.62527233 34.55446509 47.93542011 51 64 C48 64 48 64 45.96289062 62.25585938 C45.20169922 61.45986328 44.44050781 60.66386719 43.65625 59.84375 C42.82222656 58.98652344 41.98820312 58.12929688 41.12890625 57.24609375 C39.37630208 55.41536458 37.62369792 53.58463542 35.87109375 51.75390625 C35.03707031 50.89667969 34.20304687 50.03945313 33.34375 49.15625 C32.58255859 48.36025391 31.82136719 47.56425781 31.03710938 46.74414062 C29.06715196 44.67481428 29.06715196 44.67481428 26 45 C24.18424567 43.06462672 22.59786184 41.16825968 21 39.0625 C20.52159668 38.44221924 20.04319336 37.82193848 19.55029297 37.18286133 C13.91417567 29.75176119 8.90611447 21.92477841 4 14 C3.39414063 13.04222656 2.78828125 12.08445312 2.1640625 11.09765625 C1.69742188 10.32292969 1.23078125 9.54820312 0.75 8.75 C0.37359375 8.12609375 -0.0028125 7.5021875 -0.390625 6.859375 C-1.22050619 4.32717341 -0.6809438 2.53171414 0 0 Z " fill="#D4879A" transform="translate(113,338)"/>
<path d="M0 0 C0.99 0.495 0.99 0.495 2 1 C2.36 7.36 2.36 7.36 0.875 10 C-2.01807013 11.54297074 -3.93640275 10.91256088 -7 10 C-7.66 9.01 -8.32 8.02 -9 7 C-10.88877061 6.49526154 -10.88877061 6.49526154 -13.09155273 6.49169922 C-13.93681015 6.455112 -14.78206757 6.41852478 -15.65293884 6.38082886 C-16.57055496 6.35570221 -17.48817108 6.33057556 -18.43359375 6.3046875 C-19.85515526 6.24802414 -19.85515526 6.24802414 -21.30543518 6.19021606 C-24.34912367 6.07149511 -27.39306739 5.97259492 -30.4375 5.875 C-33.44952954 5.76627992 -36.4613671 5.65344682 -39.47315979 5.5383606 C-41.34745407 5.46807419 -43.2219167 5.40208809 -45.09654236 5.34127808 C-51.42425962 5.12193773 -57.70035423 4.63116107 -64 4 C-64 3.67 -64 3.34 -64 3 C-47.30814281 2.84259818 -30.67584086 3.2757172 -14 4 C-16.31 3.67 -18.62 3.34 -21 3 C-21 2.67 -21 2.34 -21 2 C-20.18015625 1.95101562 -19.3603125 1.90203125 -18.515625 1.8515625 C-17.43796875 1.77679688 -16.3603125 1.70203125 -15.25 1.625 C-13.64898437 1.52058594 -13.64898437 1.52058594 -12.015625 1.4140625 C-0.55239617 -0.15990415 -0.55239617 -0.15990415 0 0 Z " fill="#C95673" transform="translate(422,179)"/>
<path d="M0 0 C3.5 0.5625 3.5 0.5625 5.9375 2 C8.19133413 5.69628797 8.20339119 9.32579493 7.5 13.5625 C5.09549822 15.96700178 4.41766058 15.85859139 1.125 15.875 C-1.69466328 15.79327063 -3.43300735 15.59027744 -6.0625 14.5 C-8.3276657 11.44695058 -8.00903836 9.25302812 -7.5 5.5625 C-5.40973646 1.63280455 -4.43218827 0.71231597 0 0 Z " fill="#E07A94" transform="translate(376.5,131.4375)"/>
<path d="M0 0 C2.4375 1.5 2.4375 1.5 4 4 C4.6807995 8.28300443 4.45945333 11.31082001 2 15 C-1.03980658 15.64026287 -3.94086159 15.48744513 -7 15 C-9.0625 13.5 -9.0625 13.5 -10 11 C-10.49064277 7.46594988 -10.65862348 4.23976185 -8.9375 1 C-5.82090489 -0.60856522 -3.43737531 -0.42213381 0 0 Z " fill="#C13E5F" transform="translate(303,357)"/>
<path d="M0 0 C2.5 2.0625 2.5 2.0625 4 5 C3.93931504 8.51972785 3.66225706 10.91947533 1.8125 13.9375 C-0.96911637 15.5681027 -2.83292601 15.44339036 -6 15 C-8.875 13.4375 -8.875 13.4375 -11 11 C-11.63734462 7.03430012 -11.61999672 4.96719488 -9.4375 1.5625 C-6.03280512 -0.61999672 -3.96569988 -0.63734462 0 0 Z " fill="#BB3254" transform="translate(423,272)"/>
<path d="M0 0 C3 2.125 3 2.125 5 5 C5.125 8.0625 5.125 8.0625 4 11 C1.55535711 13.58045638 -0.08523584 14.79919811 -3.5625 15.5625 C-6 15 -6 15 -8.3125 12.9375 C-10.40166788 9.30080036 -10.53586016 7.13377841 -10 3 C-7.77517635 -1.05703136 -4.20307548 -0.57973455 0 0 Z " fill="#EA9BAF" transform="translate(185,271)"/>
<path d="M0 0 C-1.28519565 2.86697492 -2.57129254 4.97607712 -5 7 C-5.66 7 -6.32 7 -7 7 C-7.20625 7.556875 -7.4125 8.11375 -7.625 8.6875 C-9.15171095 11.25515024 -11.00233232 12.70153645 -13.3125 14.55078125 C-31.83036068 30.45385142 -44.25894736 54.65973669 -55 76 C-56 73 -56 73 -55.32592773 71.06494141 C-54.94895752 70.33452637 -54.5719873 69.60411133 -54.18359375 68.8515625 C-53.75626953 68.02140625 -53.32894531 67.19125 -52.88867188 66.3359375 C-52.40978516 65.44132812 -51.93089844 64.54671875 -51.4375 63.625 C-50.94443359 62.696875 -50.45136719 61.76875 -49.94335938 60.8125 C-40.34738784 43.12253509 -28.95398903 26.4038677 -14.41015625 12.41015625 C-12.8214149 10.87893106 -12.8214149 10.87893106 -11 8.4375 C-4.07692308 0 -4.07692308 0 0 0 Z " fill="#331F24" transform="translate(163,80)"/>
<path d="M0 0 C17.16111379 -0.51540829 33.22833215 0.24164306 50 4 C50.69448242 4.14953125 51.38896484 4.2990625 52.10449219 4.453125 C63.81458451 7.02755751 74.88642722 11.58732871 86 16 C85.01 16.66 84.02 17.32 83 18 C80.27614287 17.13444631 77.75198574 16.16652764 75.125 15.0625 C56.29204735 7.66622516 36.18783303 3.22572253 16 2 C14.429638 1.89133802 12.85932571 1.78195531 11.2890625 1.671875 C7.52755346 1.41695285 3.765019 1.19733893 0 1 C0 0.67 0 0.34 0 0 Z " fill="#6D5057" transform="translate(303,28)"/>
<path d="M0 0 C0.33 0.99 0.66 1.98 1 3 C1.99 3 2.98 3 4 3 C3.80664062 3.6290625 3.61328125 4.258125 3.4140625 4.90625 C1.7907875 10.24216385 0.30539435 15.57759268 -1 21 C-0.01 21.33 0.98 21.66 2 22 C2.36 27.4 2.36 27.4 0.875 29.875 C-1.86916239 31.52149743 -3.8694571 31.39964378 -7 31 C-9.56687367 27.1496895 -8.83288724 25.41430237 -8 21 C-6.35 20.67 -4.7 20.34 -3 20 C-3.061875 19.113125 -3.12375 18.22625 -3.1875 17.3125 C-3.22410208 11.4073649 -1.43634071 5.68551532 0 0 Z " fill="#F0B3C2" transform="translate(138,260)"/>
<path d="M0 0 C7.38052027 -0.48396854 7.38052027 -0.48396854 10 1.5625 C11.37020241 4.90236837 11.3898913 7.42599644 11 11 C9.9375 12.9375 9.9375 12.9375 8 14 C4.5906288 14.36528977 2.11976176 14.6140629 -0.9375 12.9375 C-2.60000982 9.90586445 -2.29734156 7.38969378 -2 4 C-1 1.5625 -1 1.5625 0 0 Z " fill="#F4CDD6" transform="translate(223,139)"/>
<path d="M0 0 C0.33 0 0.66 0 1 0 C1.50612064 2.8740422 2.00506541 5.74902873 2.5 8.625 C2.64308594 9.43324219 2.78617187 10.24148438 2.93359375 11.07421875 C3.67876251 15.43877864 4.17272306 19.55238129 4 24 C4.99 24 5.98 24 7 24 C9.31332486 27.46998729 9.33957563 28.92509248 9 33 C8.34 33.99 7.68 34.98 7 36 C3.5 36.375 3.5 36.375 0 36 C-2.35049617 32.47425575 -2.32551176 31.15027493 -2 27 C-1 23.625 -1 23.625 0 21 C0.33 21 0.66 21 1 21 C0.67 14.07 0.34 7.14 0 0 Z " fill="#A22342" transform="translate(389,304)"/>
<path d="M0 0 C3.26229399 1.63114699 3.71453983 5.16194809 4.875 8.4375 C5.40497036 9.90541054 5.9362193 11.37286011 6.46875 12.83984375 C6.85740234 13.91274658 6.85740234 13.91274658 7.25390625 15.00732422 C8.20422856 17.545456 9.28745773 20.01807317 10.375 22.5 C12.16268954 26.85841664 12.34664937 30.32023352 12 35 C11.01 35 10.02 35 9 35 C8.80889648 34.37544922 8.61779297 33.75089844 8.42089844 33.10742188 C7.53779628 30.2360115 6.64398217 27.36804075 5.75 24.5 C5.44964844 23.51773438 5.14929688 22.53546875 4.83984375 21.5234375 C3.41475252 16.97527401 1.95049637 12.68877951 -0.28125 8.46875 C-2 5 -2 5 -1.25 2 C-0.8375 1.34 -0.425 0.68 0 0 Z " fill="#BC3C5C" transform="translate(499,151)"/>
<path d="M0 0 C3.0625 0.375 3.0625 0.375 4.9375 2 C6.33078383 4.94137697 6.28181821 7.15833296 6.0625 10.375 C4.639375 10.6534375 4.639375 10.6534375 3.1875 10.9375 C-0.32121699 12.10900805 -0.32121699 12.10900805 -1.3125 16 C-1.51875 17.11375 -1.725 18.2275 -1.9375 19.375 C-2.2675 18.055 -2.5975 16.735 -2.9375 15.375 C-3.5975 15.375 -4.2575 15.375 -4.9375 15.375 C-4.99136629 13.25027424 -5.03023071 11.12516348 -5.0625 9 C-5.08570313 7.81664063 -5.10890625 6.63328125 -5.1328125 5.4140625 C-4.86764863 1.28811269 -4.08904992 0.52200637 0 0 Z " fill="#EAB9C5" transform="translate(282.9375,106.625)"/>
<path d="M0 0 C7.15730727 1.07359609 12.18407085 3.59547461 18.30078125 7.44140625 C20.63248188 8.78778621 22.3761495 9.54503305 25 10 C25 10.66 25 11.32 25 12 C25.67417969 12.23074219 26.34835937 12.46148437 27.04296875 12.69921875 C30.77733392 14.34194478 33.95690399 16.51024332 37.3125 18.8125 C38.64265087 19.71309429 39.9733754 20.61284193 41.3046875 21.51171875 C42.25746582 22.15633057 42.25746582 22.15633057 43.22949219 22.81396484 C46.43491103 24.96122418 49.7100127 26.98572206 53 29 C51.02 29.99 51.02 29.99 49 31 C48.23558594 30.38253906 47.47117187 29.76507813 46.68359375 29.12890625 C32.34541826 17.72147562 16.39667694 9.09241679 0 1 C0 0.67 0 0.34 0 0 Z " fill="#AB6174" transform="translate(387,45)"/>
<path d="M0 0 C1.40253899 4.45965496 0.09021418 7.85983993 -1.25 12.1875 C-6.1325463 28.80576438 -7.97522248 45.35326455 -8.5625 62.625 C-8.60568359 63.81996094 -8.64886719 65.01492187 -8.69335938 66.24609375 C-8.79840307 69.16397406 -8.90055648 72.08192438 -9 75 C-9.33 75 -9.66 75 -10 75 C-10.1714391 72.8753797 -10.33686595 70.75027411 -10.5 68.625 C-10.5928125 67.44164062 -10.685625 66.25828125 -10.78125 65.0390625 C-10.86055373 63.69306945 -10.93315871 62.34666946 -11 61 C-11.03714111 60.30503418 -11.07428223 59.61006836 -11.11254883 58.89404297 C-11.32341519 51.22306656 -10.16469035 43.7214621 -9.02856445 36.15869141 C-8.68739431 33.87429232 -8.36357933 31.58787304 -8.04101562 29.30078125 C-7.01315451 22.22114971 -5.90791078 15.59021083 -3 9 C-2.42606334 7.33723702 -1.8609133 5.67135481 -1.3125 4 C-1.06113281 3.236875 -0.80976562 2.47375 -0.55078125 1.6875 C-0.36902344 1.130625 -0.18726562 0.57375 0 0 Z " fill="#B3A4A8" transform="translate(99,174)"/>
<path d="M0 0 C1.71255534 2.56883301 2.56850856 4.34775085 3.515625 7.2109375 C3.79462646 8.03779053 4.07362793 8.86464355 4.36108398 9.71655273 C4.65442627 10.59384033 4.94776855 11.47112793 5.25 12.375 C7.72004665 19.64780614 10.44068899 26.52208207 13.93359375 33.37109375 C15.05437044 36.13403408 15.21951025 38.04999644 15 41 C14.34 41 13.68 41 13 41 C-0.88825098 11.32519997 -0.88825098 11.32519997 0 0 Z " fill="#D694A4" transform="translate(98,300)"/>
<path d="M0 0 C1.3899408 2.7798816 1.18488204 4.9186326 1 8 C0 10.375 0 10.375 -1 12 C-7.75 10.25 -7.75 10.25 -10 8 C-10.32954432 4.90228335 -10.45334601 2.82668977 -8.9375 0.0625 C-5.81857551 -1.64787795 -3.34442199 -0.80513863 0 0 Z " fill="#E67D97" transform="translate(416,102)"/>
<path d="M0 0 C1.22589844 0.01353516 1.22589844 0.01353516 2.4765625 0.02734375 C3.41628906 0.04474609 3.41628906 0.04474609 4.375 0.0625 C3.7743994 7.38982733 3.7743994 7.38982733 2.1875 10.0625 C-0.53473344 11.5644219 -2.58187263 11.45098434 -5.625 11.0625 C-7.625 8.0625 -7.625 8.0625 -7.375 4.4375 C-7.1275 3.32375 -6.88 2.21 -6.625 1.0625 C-4.21954362 -0.14022819 -2.67503047 -0.03821472 0 0 Z " fill="#DC5D7D" transform="translate(243.625,350.9375)"/>
<path d="M0 0 C3.0625 0.375 3.0625 0.375 4.9375 2.0625 C6.25050244 4.76144947 6.45270396 6.40944993 6.0625 9.375 C4.0625 11.375 4.0625 11.375 1.8984375 11.5703125 C0.68027344 11.53550781 0.68027344 11.53550781 -0.5625 11.5 C-1.37976563 11.48195313 -2.19703125 11.46390625 -3.0390625 11.4453125 C-3.66554688 11.42210937 -4.29203125 11.39890625 -4.9375 11.375 C-4.99149736 9.91707116 -5.03029177 8.45857288 -5.0625 7 C-5.09730469 5.78183594 -5.09730469 5.78183594 -5.1328125 4.5390625 C-4.80771199 0.93694883 -3.43134031 0.43804344 0 0 Z " fill="#A9163A" transform="translate(462.9375,297.625)"/>
<path d="M0 0 C0 0.33 0 0.66 0 1 C-0.54712646 1.0501123 -1.09425293 1.10022461 -1.65795898 1.15185547 C-4.25134912 1.39069541 -6.84445971 1.6323907 -9.4375 1.875 C-10.87633545 2.00926392 -10.87633545 2.00926392 -12.34423828 2.14624023 C-17.37259584 2.62419718 -22.38428543 3.15492169 -27.39306641 3.80566406 C-38.55707116 5.25239146 -49.75564627 5.63328768 -61 6 C-61 5.67 -61 5.34 -61 5 C-40.89440227 1.10356633 -20.4726835 -0.51324276 0 0 Z " fill="#654B51" transform="translate(304,85)"/>
<path d="M0 0 C2.8125 -0.25 2.8125 -0.25 6 0 C7.9375 1.6875 7.9375 1.6875 9 4 C8.7434556 7.50610679 7.9814066 9.0278901 6 12 C3 12.375 3 12.375 0 12 C-2.29013653 8.5647952 -2.17842973 7.014669 -2 3 C-1.34 3 -0.68 3 0 3 C0 2.01 0 1.02 0 0 Z " fill="#B72E50" transform="translate(289,408)"/>
<path d="M0 0 C3.51088463 3.41128507 6.66236335 6.95437023 9.75 10.75 C16.90476462 19.39742083 24.98074772 27.16438394 33 35 C30 35 30 35 27.96289062 33.25585938 C27.20169922 32.45986328 26.44050781 31.66386719 25.65625 30.84375 C24.82222656 29.98652344 23.98820312 29.12929688 23.12890625 28.24609375 C21.37630208 26.41536458 19.62369792 24.58463542 17.87109375 22.75390625 C17.03707031 21.89667969 16.20304687 21.03945313 15.34375 20.15625 C14.58255859 19.36025391 13.82136719 18.56425781 13.03710938 17.74414062 C11.06715196 15.67481428 11.06715196 15.67481428 8 16 C5.95703125 14.0234375 5.95703125 14.0234375 3.8125 11.375 C2.73935547 10.08722656 2.73935547 10.08722656 1.64453125 8.7734375 C-0.25715243 5.56632251 -0.32780303 3.66494532 0 0 Z " fill="#C4657D" transform="translate(131,367)"/>
<path d="M0 0 C0.99 0.66 1.98 1.32 3 2 C3.40843923 4.71203652 3.13336867 7.2437142 3 10 C1.54364629 10.22174933 0.08477044 10.42698698 -1.375 10.625 C-2.18710938 10.74101562 -2.99921875 10.85703125 -3.8359375 10.9765625 C-4.55007812 10.98429688 -5.26421875 10.99203125 -6 11 C-8 9 -8 9 -8.3125 6.0625 C-8 3 -8 3 -6.8125 1.125 C-4.36830089 -0.3920891 -2.83079592 -0.35384949 0 0 Z " fill="#EBBCC8" transform="translate(176,213)"/>
<path d="M0 0 C4.39823468 2.42689785 8.03903662 5.412013 11.8125 8.6875 C12.42907471 9.21988281 13.04564941 9.75226563 13.6809082 10.30078125 C26.17315946 21.17302831 26.17315946 21.17302831 30 27 C30 27.99 30 28.98 30 30 C29.34 30 28.68 30 28 30 C26.765625 28.7421875 26.765625 28.7421875 25.25 26.875 C21.68396282 22.67966214 17.88925816 18.76734324 14 14.875 C13.41895508 14.28960449 12.83791016 13.70420898 12.23925781 13.10107422 C8.73877226 9.6113987 5.13815224 6.3643878 1.28515625 3.26611328 C0.86105469 2.8482959 0.43695313 2.43047852 0 2 C0 1.34 0 0.68 0 0 Z " fill="#C95F7A" transform="translate(437,74)"/>
<path d="M0 0 C0.22174933 1.45635371 0.42698698 2.91522956 0.625 4.375 C0.74101562 5.18710938 0.85703125 5.99921875 0.9765625 6.8359375 C0.98429688 7.55007812 0.99203125 8.26421875 1 9 C-1 11 -1 11 -4 11.3125 C-4.99 11.209375 -5.98 11.10625 -7 11 C-9.4294516 7.3558226 -9.16179575 5.28758728 -9 1 C-5.8035914 -0.06546953 -3.34252724 -0.07427838 0 0 Z " fill="#EFEAEB" transform="translate(212,91)"/>
<path d="M0 0 C0.33 0 0.66 0 1 0 C1.05582245 0.55320419 1.1116449 1.10640839 1.16915894 1.67637634 C2.27195499 8.8576781 5.47582717 12.41347094 10.6328125 17.31640625 C11.38464813 18.05833725 12.13648376 18.80026825 12.91110229 19.56468201 C15.29971822 21.91433271 17.71156778 24.23837392 20.125 26.5625 C21.75550695 28.1578709 23.38443162 29.75486063 25.01171875 31.35351562 C28.98969094 35.25459968 32.98699331 39.13498222 37 43 C34 43 34 43 32.4090271 41.71595764 C31.83882843 41.1149675 31.26862976 40.51397736 30.68115234 39.89477539 C30.0297226 39.21729752 29.37829285 38.53981964 28.7071228 37.84181213 C28.00713165 37.10124069 27.3071405 36.36066925 26.5859375 35.59765625 C25.08799092 34.05200588 23.58926793 32.50710763 22.08984375 30.96289062 C19.7310495 28.51752387 17.37895302 26.06666675 15.04052734 23.60180664 C12.78206291 21.22805597 10.4988615 18.88047825 8.2109375 16.53515625 C7.52309174 15.79660904 6.83524597 15.05806183 6.1265564 14.2971344 C2.563686 10.6795869 0.13277058 8.6159933 -5.01318359 8.02905273 C-6.98665771 8.01467163 -6.98665771 8.01467163 -9 8 C-9 7.67 -9 7.34 -9 7 C-4.545 6.505 -4.545 6.505 0 6 C0 4.02 0 2.04 0 0 Z " fill="#C88A9A" transform="translate(179,217)"/>
<path d="M0 0 C4.07017052 1.25324881 7.63850996 2.75563262 11.3359375 4.86328125 C12.31820312 5.42080078 13.30046875 5.97832031 14.3125 6.55273438 C15.323125 7.13345703 16.33375 7.71417969 17.375 8.3125 C18.37789062 8.88162109 19.38078125 9.45074219 20.4140625 10.03710938 C23.28634448 11.6743853 26.14641842 13.330373 29 15 C29.82790039 15.48259277 30.65580078 15.96518555 31.50878906 16.46240234 C33.3758945 17.58258339 35.19465052 18.78278943 37 20 C37 20.66 37 21.32 37 22 C33.11156765 20.55316221 29.6251136 18.73941399 26.03515625 16.6640625 C24.90529297 16.01179688 23.77542969 15.35953125 22.61132812 14.6875 C22.02810791 14.34847656 21.4448877 14.00945312 20.84399414 13.66015625 C19.073441 12.63135738 17.29969103 11.60825727 15.52539062 10.5859375 C4.87475543 4.42009969 4.87475543 4.42009969 0 1 C0 0.67 0 0.34 0 0 Z " fill="#99354E" transform="translate(232,380)"/>
<path d="M0 0 C2.62551287 1.31275643 2.69506505 2.3243582 3.625 5.0625 C5.0563123 9.55063506 5.25551673 13.31552667 5 18 C4.01 18 3.02 18 2 18 C1.32779649 16.06441401 0.66241923 14.12645628 0 12.1875 C-0.37125 11.10855469 -0.7425 10.02960938 -1.125 8.91796875 C-2 6 -2 6 -2 3 C-1.34 3 -0.68 3 0 3 C0 2.01 0 1.02 0 0 Z " fill="#B13353" transform="translate(506,168)"/>
<path d="M0 0 C3.91533709 4.35037455 7.10110337 9.45071305 9 15 C8.63671875 17.8125 8.63671875 17.8125 8 20 C5.16811225 16.5494537 3.25496982 12.74037641 1.3125 8.75 C0.99216797 8.1003125 0.67183594 7.450625 0.34179688 6.78125 C-0.44247141 5.18930243 -1.22174255 3.59489471 -2 2 C-1.34 2 -0.68 2 0 2 C0 1.34 0 0.68 0 0 Z " fill="#C24766" transform="translate(490,134)"/>
<path d="M0 0 C0.33 0.99 0.66 1.98 1 3 C1.99 3 2.98 3 4 3 C3.80664062 3.64066406 3.61328125 4.28132813 3.4140625 4.94140625 C1.9059252 9.95110985 0.42282214 14.96539857 -1 20 C-3.62169968 16.06745047 -2.82492831 13.40466309 -2 9 C-1.37992891 5.98822616 -0.71314386 2.99104998 0 0 Z " fill="#D7A2B0" transform="translate(138,260)"/>
<path d="M0 0 C0.96981867 3.0486685 1.00330551 4.89102208 0.07421875 7.94140625 C-0.14468018 8.68535645 -0.3635791 9.42930664 -0.58911133 10.19580078 C-0.82782959 10.97681152 -1.06654785 11.75782227 -1.3125 12.5625 C-3.29589029 19.32936099 -4.96875315 26.01214823 -6 33 C-6.66 33 -7.32 33 -8 33 C-6.30053951 16.52523009 -6.30053951 16.52523009 -3 9 C-2.42252985 7.33846088 -1.8602208 5.67158187 -1.3125 4 C-1.06113281 3.236875 -0.80976562 2.47375 -0.55078125 1.6875 C-0.36902344 1.130625 -0.18726562 0.57375 0 0 Z " fill="#908588" transform="translate(99,174)"/>
<path d="M0 0 C7.11959649 1.06793947 12.18546927 3.57064248 18.30078125 7.34375 C20.49864718 8.69236817 22.67378703 9.8949107 25 11 C22.66327732 11.8170063 21.42157586 12.147119 19.04882812 11.3190918 C18.38302734 10.94953369 17.71722656 10.57997559 17.03125 10.19921875 C15.92716797 9.59883789 15.92716797 9.59883789 14.80078125 8.98632812 C14.04152344 8.55771484 13.28226562 8.12910156 12.5 7.6875 C10.98964583 6.85795913 9.47923113 6.02852844 7.96875 5.19921875 C7.30294922 4.82627686 6.63714844 4.45333496 5.95117188 4.0690918 C3.99052735 2.99480972 2.00558418 1.98742042 0 1 C0 0.67 0 0.34 0 0 Z " fill="#895764" transform="translate(387,45)"/>
<path d="M0 0 C4.10365915 2.30688074 7.70875702 5.05427226 11.3125 8.0625 C11.86228516 8.50916016 12.41207031 8.95582031 12.97851562 9.41601562 C14.35947131 10.563667 15.68502553 11.77730444 17 13 C17 13.66 17 14.32 17 15 C13.84817001 14.41406094 12.11045786 13.51824999 9.765625 11.34765625 C9.19199219 10.81849609 8.61835938 10.28933594 8.02734375 9.74414062 C7.44082031 9.18919922 6.85429687 8.63425781 6.25 8.0625 C5.64800781 7.51142578 5.04601562 6.96035156 4.42578125 6.39257812 C2.90609493 4.97454883 1.44760769 3.49153798 0 2 C0 1.34 0 0.68 0 0 Z " fill="#CA6982" transform="translate(437,74)"/>
<path d="M0 0 C2.24269478 3.36404218 3.38655744 6.75716923 4.625 10.5625 C4.85445313 11.24763672 5.08390625 11.93277344 5.3203125 12.63867188 C7 17.73272414 7 17.73272414 7 20 C6.01 20.33 5.02 20.66 4 21 C-0.59225513 7.55125285 -0.59225513 7.55125285 0 0 Z " fill="#CD99A6" transform="translate(98,300)"/>
<path d="M0 0 C1.32 0.33 2.64 0.66 4 1 C2.49901406 4.11743233 0.97568178 7.15501823 -1 10 C-1.99 10 -2.98 10 -4 10 C-4.99 10.33 -5.98 10.66 -7 11 C-5.22054913 6.95579349 -2.60470327 3.53921513 0 0 Z " fill="#CE6983" transform="translate(335,191)"/>
<path d="M0 0 C3.39314652 5.08971978 5.44530236 8.76576703 5 15 C4.01 15 3.02 15 2 15 C-0.49118146 9.32010626 -1.38766322 6.05525768 0 0 Z " fill="#CE6781" transform="translate(415,111)"/>
<path d="M0 0 C7.95598501 -0.48490202 15.39198542 0.58932096 23 3 C23.66 3.66 24.32 4.32 25 5 C16.50430168 4.42029353 8.31124051 2.76198299 0 1 C0 0.67 0 0.34 0 0 Z " fill="#71545B" transform="translate(332,30)"/>
<path d="M0 0 C0.53625 0.2475 1.0725 0.495 1.625 0.75 C1.5 2.5625 1.5 2.5625 0.625 4.75 C-4.41071429 7.75 -4.41071429 7.75 -7.375 7.75 C-7.705 6.43 -8.035 5.11 -8.375 3.75 C-2.95961538 -0.31153846 -2.95961538 -0.31153846 0 0 Z " fill="#BB4D68" transform="translate(255.375,345.25)"/>
<path d="M0 0 C0.33 0 0.66 0 1 0 C1.66 6.27 2.32 12.54 3 19 C2.01 19 1.02 19 0 19 C-0.69508823 12.48755792 -1.31909709 6.4489191 0 0 Z " fill="#B89BA3" transform="translate(90,257)"/>
<path d="M0 0 C2 1 2 1 2.8515625 3.06640625 C3.10679687 3.89011719 3.36203125 4.71382812 3.625 5.5625 C3.88539063 6.38878906 4.14578125 7.21507812 4.4140625 8.06640625 C4.60742188 8.70449219 4.80078125 9.34257812 5 10 C4.01 9.67 3.02 9.34 2 9 C1.67 9.99 1.34 10.98 1 12 C0.44191911 10.56879256 -0.09596462 9.12969645 -0.625 7.6875 C-0.92664063 6.88699219 -1.22828125 6.08648437 -1.5390625 5.26171875 C-1.69117188 4.51535156 -1.84328125 3.76898438 -2 3 C-1.34 2.01 -0.68 1.02 0 0 Z " fill="#AE3A57" transform="translate(499,151)"/>
<path d="M0 0 C1.62477811 2.96162086 2.51695886 5.69266927 3.1875 9 C3.36667969 9.845625 3.54585938 10.69125 3.73046875 11.5625 C4.00334098 14.03021411 3.76424119 15.65849506 3 18 C2.29805625 15.94237091 1.61398303 13.87863969 0.9375 11.8125 C0.55464844 10.66394531 0.17179687 9.51539063 -0.22265625 8.33203125 C-0.99406151 5.02545492 -0.96093996 3.20917686 0 0 Z " fill="#DDAEBA" transform="translate(95,290)"/>
<path d="M0 0 C1.32 0 2.64 0 4 0 C4 3 4 3 2.25 4.82421875 C1.5075 5.43910156 0.765 6.05398438 0 6.6875 C-0.7425 7.31011719 -1.485 7.93273437 -2.25 8.57421875 C-2.8275 9.04472656 -3.405 9.51523437 -4 10 C-4.66 9.67 -5.32 9.34 -6 9 C-5.071875 7.88625 -5.071875 7.88625 -4.125 6.75 C-2.39562719 4.51198812 -1.13893339 2.56260013 0 0 Z " fill="#9F1537" transform="translate(448,314)"/>
<path d="M0 0 C2.375 1.0625 2.375 1.0625 5 3 C6.3125 6.6875 6.3125 6.6875 7 10 C6.01 10.495 6.01 10.495 5 11 C4.15841464 9.73461631 3.32700252 8.46246221 2.5 7.1875 C1.80390625 6.12595703 1.80390625 6.12595703 1.09375 5.04296875 C0 3 0 3 0 0 Z " fill="#E2859D" transform="translate(125,361)"/>
<path d="M0 0 C1.9375 0.5625 1.9375 0.5625 4 2 C4.75 5.625 4.75 5.625 5 9 C2.5 6.75 2.5 6.75 0 4 C0 2.68 0 1.36 0 0 Z " fill="#E37B95" transform="translate(136,375)"/>
<path d="M0 0 C0.99 0 1.98 0 3 0 C3.66 3.63 4.32 7.26 5 11 C2.13888288 8.13888288 1.2084996 6.7184603 0 3 C0 2.01 0 1.02 0 0 Z " fill="#E0A2B1" transform="translate(103,320)"/>
<path d="M0 0 C0.33 0 0.66 0 1 0 C3.125 6.75 3.125 6.75 2 9 C-1.63 8.67 -5.26 8.34 -9 8 C-9 7.67 -9 7.34 -9 7 C-4.545 6.505 -4.545 6.505 0 6 C0 4.02 0 2.04 0 0 Z " fill="#CA9BA7" transform="translate(179,217)"/>
<path d="M0 0 C-1 3 -1 3 -2.77734375 4.16796875 C-3.49019531 4.50441406 -4.20304688 4.84085938 -4.9375 5.1875 C-6.00291016 5.70376953 -6.00291016 5.70376953 -7.08984375 6.23046875 C-9 7 -9 7 -11 7 C-11 6.34 -11 5.68 -11 5 C-9.54462432 4.16151196 -8.08559627 3.32936066 -6.625 2.5 C-5.81289062 2.0359375 -5.00078125 1.571875 -4.1640625 1.09375 C-2 0 -2 0 0 0 Z " fill="#251015" transform="translate(213,47)"/>
<path d="M0 0 C0.33 0.99 0.66 1.98 1 3 C1.99 3 2.98 3 4 3 C3.34 5.31 2.68 7.62 2 10 C1.01 9.34 0.02 8.68 -1 8 C-0.67 5.36 -0.34 2.72 0 0 Z " fill="#C898A4" transform="translate(138,260)"/>
<path d="M0 0 C3.5875213 1.33250791 6.8364623 2.830717 10 5 C10 5.66 10 6.32 10 7 C6.4124787 5.66749209 3.1635377 4.169283 0 2 C0 1.34 0 0.68 0 0 Z " fill="#9F6070" transform="translate(410,56)"/>
<path d="M0 0 C1.45922693 0.11409593 2.91740598 0.24165544 4.375 0.375 C5.59316406 0.47941406 5.59316406 0.47941406 6.8359375 0.5859375 C9 1 9 1 11 3 C6.48281619 4.36884358 3.41225737 3.47075246 -1 2 C-0.67 1.34 -0.34 0.68 0 0 Z " fill="#61424A" transform="translate(357,34)"/>
<path d="M0 0 C1.32 0.33 2.64 0.66 4 1 C3.67 2.32 3.34 3.64 3 5 C1.35 5 -0.3 5 -2 5 C-1.34 3.35 -0.68 1.7 0 0 Z " fill="#C95370" transform="translate(253,345)"/>
<path d="M0 0 C4.31392226 0.4793247 6.16569547 1.7457985 9 5 C4.68607774 4.5206753 2.83430453 3.2542015 0 0 Z " fill="#7C263C" transform="translate(261,392)"/>
<path d="M0 0 C2.0625 0.4375 2.0625 0.4375 4 1 C2.84826645 3.46800047 1.95216435 5.04783565 0 7 C-0.38133299 5.0085944 -0.71325582 3.00720923 -1 1 C-0.67 0.67 -0.34 0.34 0 0 Z " fill="#DC718C" transform="translate(335,191)"/>
<path d="M0 0 C-1.33332095 3.99996286 -3.4957827 4.83782337 -7 7 C-7.66 6.67 -8.32 6.34 -9 6 C-3.2 0 -3.2 0 0 0 Z " fill="#281319" transform="translate(193,58)"/>
<path d="M0 0 C3.3 0.99 6.6 1.98 10 3 C9.01 3.66 8.02 4.32 7 5 C4.95703125 4.5390625 4.95703125 4.5390625 2.8125 3.625 C2.09707031 3.32851563 1.38164062 3.03203125 0.64453125 2.7265625 C0.10183594 2.48679688 -0.44085938 2.24703125 -1 2 C-0.67 1.34 -0.34 0.68 0 0 Z " fill="#6C4650" transform="translate(379,41)"/>
<path d="M0 0 C3.73487777 0.4979837 5.81237635 0.87491756 9 3 C9 3.66 9 4.32 9 5 C5.22454612 3.90931332 2.52956528 3.0916909 0 0 Z " fill="#9E3E57" transform="translate(223,375)"/>
<path d="M0 0 C0.66 0.33 1.32 0.66 2 1 C0.38405168 3.04119788 -1.2856382 5.04072937 -3 7 C-3.66 7 -4.32 7 -5 7 C-3.70700306 4.11562221 -2.34058637 2.12780579 0 0 Z " fill="#B4576E" transform="translate(193,345)"/>
<path d="M0 0 C0.33 0.99 0.66 1.98 1 3 C1.99 2.67 2.98 2.34 4 2 C3.34 4.31 2.68 6.62 2 9 C1.67 7.68 1.34 6.36 1 5 C0.34 5 -0.32 5 -1 5 C-0.67 3.35 -0.34 1.7 0 0 Z " fill="#C395A0" transform="translate(279,117)"/>
</svg>
